<svg width="25" height="25" viewBox="0 0 25 25" fill="none" xmlns="http://www.w3.org/2000/svg">
<path d="M23.9701 10.2088H23.0278V10.1603H12.4999V14.8393H19.1108C18.1464 17.5631 15.5548 19.5184 12.4999 19.5184C8.62389 19.5184 5.48131 16.3758 5.48131 12.4998C5.48131 8.62377 8.62389 5.48119 12.4999 5.48119C14.2891 5.48119 15.9168 6.15614 17.1562 7.25865L20.4648 3.94997C18.3756 2.00289 15.5811 0.802124 12.4999 0.802124C6.03987 0.802124 0.802246 6.03975 0.802246 12.4998C0.802246 18.9598 6.03987 24.1975 12.4999 24.1975C18.9599 24.1975 24.1976 18.9598 24.1976 12.4998C24.1976 11.7155 24.1169 10.9498 23.9701 10.2088Z" fill="#FFC107"/>
<path d="M2.15039 7.05511L5.99366 9.87366C7.03358 7.29901 9.55209 5.48119 12.4993 5.48119C14.2885 5.48119 15.9162 6.15614 17.1556 7.25865L20.4643 3.94996C18.3751 2.00289 15.5805 0.802124 12.4993 0.802124C8.00624 0.802124 4.10975 3.33876 2.15039 7.05511Z" fill="#FF3D00"/>
<path d="M12.5003 24.1979C15.5218 24.1979 18.2672 23.0416 20.343 21.1612L16.7225 18.0976C15.5086 19.0207 14.0253 19.52 12.5003 19.5188C9.45771 19.5188 6.87428 17.5788 5.90103 14.8713L2.08643 17.8104C4.02239 21.5987 7.95397 24.1979 12.5003 24.1979Z" fill="#4CAF50"/>
<path d="M23.9701 10.2088H23.0279V10.1603H12.5V14.8393H19.1109C18.6496 16.1357 17.8186 17.2685 16.7205 18.0977L16.7223 18.0966L20.3427 21.1602C20.0865 21.393 24.1977 18.3486 24.1977 12.4998C24.1977 11.7155 24.117 10.9499 23.9701 10.2088Z" fill="#1976D2"/>
</svg>
